<svg id="Objects" xmlns="http://www.w3.org/2000/svg" viewBox="0 0 416.73 301.33"><defs><style>.cls-1{fill:#9abfe2;}.cls-2{fill:#e6f4ff;}.cls-3{fill:#fff;}.cls-4{fill:#383a47;}.cls-5{fill:#2e313d;}.cls-6{fill:#ffb985;}.cls-7{fill:#ea9c68;}.cls-8{fill:#bc1f2c;}.cls-9{fill:#9d1625;}.cls-10{fill:#ffb787;}.cls-11,.cls-12,.cls-14,.cls-20{fill:none;}.cls-11{stroke:#ea9c68;stroke-width:0.65px;}.cls-11,.cls-14,.cls-20{stroke-linecap:round;stroke-linejoin:round;}.cls-12{stroke:#dfecf7;stroke-miterlimit:10;}.cls-12,.cls-14{stroke-width:0.52px;}.cls-13{fill:#dfecf7;}.cls-14{stroke:#c1d9e8;}.cls-15{fill:#b3b3b3;}.cls-16{fill:#d6d6d6;}.cls-17,.cls-18{fill:#ffb741;}.cls-18{font-size:19.5px;font-family:MyriadPro-Regular, Myriad Pro;}.cls-19{letter-spacing:-0.01em;}.cls-20{stroke:#ffb741;stroke-width:4.52px;}.cls-21{fill:#ebebeb;}.cls-22{fill:#eab575;}.cls-23{fill:#d6a167;}.cls-24{fill:#b99563;}.cls-25{fill:#f4c583;}.cls-26{fill:#e2ae6f;}.cls-27{fill:#eaeaea;}</style></defs><path class="cls-1" d="M402.25,309.65s56.54-61.76,3.18-150.51c-39.62-65.88-96.16-42.81-141.21-5.87s-133-47.54-154.84,47.27C85.35,304.68,284.72,433.53,402.25,309.65Z" transform="translate(-31.7 -117.38)"/><path class="cls-2" d="M303.17,172.69a6.29,6.29,0,0,0-5.22-2.94c-.16,0-.3,0-.46.05a8.6,8.6,0,0,0-8.05-6.44,7.65,7.65,0,0,0-1.86.24,10.7,10.7,0,0,0-9.9-7.51c-.23,0-.45.06-.69.08a10.09,10.09,0,0,0-9-5.93,10.19,10.19,0,0,0-9.24,6.48,7.86,7.86,0,0,0-4-1.17,6.4,6.4,0,0,0-.88.1,11.22,11.22,0,0,0-10.31-7.5c-6.18,0-11.19,5.49-11.19,12.27a8.65,8.65,0,0,0-8.16,6.83,5.7,5.7,0,0,0-1.25-.14,6.64,6.64,0,0,0-6.31,5.58Z" transform="translate(-31.7 -117.38)"/><path class="cls-2" d="M448.43,240.84a6.31,6.31,0,0,0-5.22-2.94,3.4,3.4,0,0,0-.46.06,8.62,8.62,0,0,0-8.05-6.45,8.26,8.26,0,0,0-1.87.24,10.67,10.67,0,0,0-9.89-7.5c-.24,0-.46.06-.69.08a9.79,9.79,0,0,0-18.22.54,7.83,7.83,0,0,0-4-1.17,8.27,8.27,0,0,0-.87.1,11.25,11.25,0,0,0-10.31-7.5c-6.18,0-11.19,5.5-11.19,12.27a8.65,8.65,0,0,0-8.16,6.83,6.46,6.46,0,0,0-1.25-.13,6.65,6.65,0,0,0-6.32,5.57Z" transform="translate(-31.7 -117.38)"/><path class="cls-2" d="M150.66,203.32a6.31,6.31,0,0,0-5.23-2.94c-.15,0-.3,0-.46.05a8.59,8.59,0,0,0-8-6.44,7.66,7.66,0,0,0-1.87.24,10.68,10.68,0,0,0-9.89-7.5c-.24,0-.46.06-.69.08a9.79,9.79,0,0,0-18.22.54,7.86,7.86,0,0,0-4-1.17,8.78,8.78,0,0,0-.88.1A11.21,11.21,0,0,0,91,178.78c-6.18,0-11.19,5.49-11.19,12.27a8.66,8.66,0,0,0-8.16,6.83,6.36,6.36,0,0,0-1.24-.13,6.65,6.65,0,0,0-6.32,5.57Z" transform="translate(-31.7 -117.38)"/><rect class="cls-1" x="25.56" y="279.04" width="382.5" height="8.17" rx="4"/><rect class="cls-1" x="95.31" y="293.16" width="300.05" height="8.17" rx="4"/><rect class="cls-3" x="164.8" y="362.86" width="255.26" height="16.59" transform="translate(553.16 624.94) rotate(180)"/><rect class="cls-4" x="287.44" y="330.43" width="20.23" height="32.44" transform="translate(563.41 575.91) rotate(180)"/><polygon class="cls-1" points="342.65 136.03 361.86 184.31 282.03 184.31 282.03 136.03 342.65 136.03"/><path class="cls-5" d="M364,301.6v.1h29.55l-7.55-19a19.79,19.79,0,0,0-2.9-.24A19.1,19.1,0,0,0,364,301.6Z" transform="translate(-31.7 -117.38)"/><path class="cls-4" d="M363.4,303.06a1.93,1.93,0,0,1-2.52,1.06h0a1.94,1.94,0,0,1-1.06-2.52l7.38-18.15a1.94,1.94,0,0,1,2.52-1.07h0a1.93,1.93,0,0,1,1.06,2.52Z" transform="translate(-31.7 -117.38)"/><rect class="cls-6" x="302.55" y="162.01" width="7.83" height="9.88"/><path class="cls-7" d="M334.25,282.45a12.87,12.87,0,0,0,7.83,3.46v-6.52h-7.83Z" transform="translate(-31.7 -117.38)"/><path class="cls-8" d="M327.8,310.4h18.08c6.79-26.27-8.86-25.73-8.86-25.73-13.13-1.43-8.8,22.76-8.8,22.76A8,8,0,0,1,327.8,310.4Z" transform="translate(-31.7 -117.38)"/><path class="cls-9" d="M340.54,285.39l0,0-.16-.06-.21-.07a6.6,6.6,0,0,0-3.79,1.4s-5.7,4.39,4.57,15.09a27.78,27.78,0,0,1,5,8.67c.12-.48.23-.94.35-1.4,0-.11,0-.22.07-.33.08-.34.16-.68.23-1,0-.14.05-.28.08-.41l.18-.89c0-.14,0-.28.08-.42l.15-.85.06-.38c0-.29.09-.58.13-.86,0-.11,0-.21,0-.32l.12-.95a1.1,1.1,0,0,1,0-.18c.07-.76.13-1.49.16-2.19C348,290.24,343.77,286.67,340.54,285.39Z" transform="translate(-31.7 -117.38)"/><path class="cls-7" d="M344,292c0,3.38-2.1,6.12-4.68,6.12s-4.68-2.74-4.68-6.12,2.09-6.12,4.68-6.12S344,288.62,344,292Z" transform="translate(-31.7 -117.38)"/><path class="cls-6" d="M351,269.89c.78,7.25-3.59,13.69-9.77,14.38s-11.81-4.64-12.59-11.89,3.6-13.69,9.77-14.38S350.19,262.63,351,269.89Z" transform="translate(-31.7 -117.38)"/><path class="cls-6" d="M351,269.89c.78,7.25-3.59,13.69-9.77,14.38s-11.81-4.64-12.59-11.89,3.6-13.69,9.77-14.38S350.19,262.63,351,269.89Z" transform="translate(-31.7 -117.38)"/><path class="cls-7" d="M351,270.24c0-.12,0-.23,0-.35a15.4,15.4,0,0,0-.41-2.27l-11.74,1.48Z" transform="translate(-31.7 -117.38)"/><path class="cls-4" d="M338.34,257.59c-6.38.71-10.91,7.37-10.1,14.87a14.55,14.55,0,0,0,5.53,10.16c-.49-2-.86-9.35,5.05-13.52l12.29-.28C350.31,262,344.6,256.89,338.34,257.59Z" transform="translate(-31.7 -117.38)"/><path class="cls-5" d="M350.91,267.57h0a13.6,13.6,0,0,0-1.23-3.45h0l0-.06a13.35,13.35,0,0,0-1.43-2.17c-.86,1.23-4.72,6.38-9.4,7.21l12.29-.28C351.06,268.4,351,268,350.91,267.57Z" transform="translate(-31.7 -117.38)"/><path class="cls-4" d="M342.43,269s5.59-5.32,6.34-8.52c.39-1.65,1.85-.24,1.8,1.36,0,1,.28-3,1.13-3.15s1.35,2.35.83,4.74c0,0,.43-1.78,1-.7s-.13,5.24-2.41,6.07l-5.44.12Z" transform="translate(-31.7 -117.38)"/><path class="cls-5" d="M350.19,264.28a8.12,8.12,0,0,1-.28.82c-.09.25-.22.52-.35.83s-.3.61-.48.9a9.28,9.28,0,0,1-.56.87,7.91,7.91,0,0,1-.55.72l-.6.65a.22.22,0,0,1-.3,0,.21.21,0,0,1,0-.3h0l0,0,.62-.58a7.71,7.71,0,0,0,.58-.64,8.57,8.57,0,0,0,.61-.81c.2-.28.37-.58.54-.86s.3-.55.41-.78C350.07,264.61,350.19,264.28,350.19,264.28Z" transform="translate(-31.7 -117.38)"/><path class="cls-5" d="M351.9,265a11.31,11.31,0,0,1-.67,2.07c-.12.25-.23.5-.36.73s-.25.43-.37.61l-.42.55a.2.2,0,0,1-.29.05.21.21,0,0,1-.05-.3l0,0v0l.45-.48c.13-.15.25-.34.4-.54s.28-.44.42-.67A12,12,0,0,0,351.9,265Z" transform="translate(-31.7 -117.38)"/><path class="cls-6" d="M337.56,273.36c0,1.66-1,3-2.26,3s-2.26-1.34-2.26-3,1-3,2.26-3S337.56,271.71,337.56,273.36Z" transform="translate(-31.7 -117.38)"/><path class="cls-10" d="M361.26,289.71a3.44,3.44,0,0,1,4.84.43h0a3.45,3.45,0,0,1-.44,4.84l-12.77,10.75a3.44,3.44,0,0,1-4.84-.44h0a3.43,3.43,0,0,1,.43-4.84Z" transform="translate(-31.7 -117.38)"/><path class="cls-7" d="M361.53,289.52a5,5,0,0,0,1.39,5.86,4.9,4.9,0,0,0,1.4.72l1.34-1.12a3.43,3.43,0,0,0-4.13-5.46Z" transform="translate(-31.7 -117.38)"/><path class="cls-10" d="M353.3,300.78a3.42,3.42,0,0,1-.23,4.85h0a3.42,3.42,0,0,1-4.85-.23l-11.66-13a3.43,3.43,0,0,1,.22-4.85h0a3.44,3.44,0,0,1,4.86.22Z" transform="translate(-31.7 -117.38)"/><path class="cls-7" d="M360.47,286.91c.68-1.23,2-1.82,2.89-1.31s1.09,1.92.41,3.14-2,1.82-2.89,1.31S359.78,288.14,360.47,286.91Z" transform="translate(-31.7 -117.38)"/><path class="cls-10" d="M362,287.11a4.92,4.92,0,1,1,.66,7.13A5.06,5.06,0,0,1,362,287.11Z" transform="translate(-31.7 -117.38)"/><path class="cls-11" d="M366.2,288.13s1.78-1.76,1.15-3" transform="translate(-31.7 -117.38)"/><path class="cls-11" d="M367.77,289.61a4.8,4.8,0,0,0,2-2.94" transform="translate(-31.7 -117.38)"/><path class="cls-11" d="M369.22,291a2.39,2.39,0,0,0,1.71-1.55" transform="translate(-31.7 -117.38)"/><path class="cls-12" d="M340,275s-.46-3.33-3.34-4-7.54,7.15,2.48,8.82" transform="translate(-31.7 -117.38)"/><path class="cls-13" d="M351.11,273.36a17,17,0,0,1-11.32,1.24s-2.56,3.9-2,6.65c0,0,2.56,3,6.19,2.87C344,284.12,353.28,281.82,351.11,273.36Z" transform="translate(-31.7 -117.38)"/><path class="cls-14" d="M351.44,275.74a22.19,22.19,0,0,1-10,.87" transform="translate(-31.7 -117.38)"/><path class="cls-6" d="M337.56,273.36c0,1.66-1,3-2.26,3s-2.26-1.34-2.26-3,1-3,2.26-3S337.56,271.71,337.56,273.36Z" transform="translate(-31.7 -117.38)"/><polygon class="cls-3" points="369.65 189.96 347.84 136.03 342.65 136.03 361.86 184.31 282.03 184.31 282.03 136.03 269.17 136.03 269.17 245.48 385.05 245.48 385.05 208.81 369.65 189.96"/><rect class="cls-4" x="416.74" y="333.82" width="6.62" height="29.05" transform="translate(808.42 579.3) rotate(180)"/><polygon class="cls-3" points="51.68 262.07 52.15 208.97 264.06 208.97 264.06 262.07 51.68 262.07"/><path class="cls-15" d="M359.06,379.46H303.17c.29-17.57,12.68-31.71,27.94-31.71S358.77,361.89,359.06,379.46Z" transform="translate(-31.7 -117.38)"/><path class="cls-15" d="M137.27,343.67c18.13,0,32.83,16,32.83,35.79H104.45C104.45,359.69,119.14,343.67,137.27,343.67Z" transform="translate(-31.7 -117.38)"/><path class="cls-4" d="M308.21,376.38a23.2,23.2,0,1,0,23.19-23.2A23.19,23.19,0,0,0,308.21,376.38Z" transform="translate(-31.7 -117.38)"/><path class="cls-15" d="M320.34,376.38a11.07,11.07,0,1,0,11.06-11.07A11.06,11.06,0,0,0,320.34,376.38Z" transform="translate(-31.7 -117.38)"/><path class="cls-4" d="M111.46,374.81A25.77,25.77,0,1,0,137.23,349,25.76,25.76,0,0,0,111.46,374.81Z" transform="translate(-31.7 -117.38)"/><path class="cls-15" d="M125.76,374.81a11.47,11.47,0,1,0,11.47-11.46A11.46,11.46,0,0,0,125.76,374.81Z" transform="translate(-31.7 -117.38)"/><rect class="cls-4" x="172.15" y="362.86" width="128.72" height="18.61" transform="translate(441.31 626.95) rotate(180)"/><rect class="cls-16" x="183.7" y="337.59" width="105.32" height="12.08" transform="translate(441.02 569.87) rotate(180)"/><polygon class="cls-16" points="280.85 238.53 283.2 236.36 283.2 136.03 280.85 136.03 280.85 238.53"/><polygon class="cls-4" points="264.06 116.84 350.76 116.84 358.83 136.03 264.06 136.03 264.06 116.84"/><polygon class="cls-17" points="375.63 197.28 375.63 211.59 385.05 211.59 385.05 208.81 375.63 197.28"/><polygon class="cls-16" points="342.97 245.48 356.7 196.2 366.15 193.74 361.86 184.31 359.2 184.21 362.6 192.26 354.83 194.29 340.46 245.48 342.97 245.48"/><path class="cls-4" d="M321.2,313.31h13a1.2,1.2,0,0,0,1.19-1.2h0a1.19,1.19,0,0,0-1.19-1.19h-13a1.19,1.19,0,0,0-1.19,1.19h0A1.19,1.19,0,0,0,321.2,313.31Z" transform="translate(-31.7 -117.38)"/><polygon class="cls-16" points="52.15 208.97 58.78 208.97 58.69 262.07 51.68 262.07 52.15 208.97"/><polygon class="cls-4" points="49.48 245.91 69.53 245.91 69.53 264.09 49.38 264.09 49.48 245.91"/><polygon class="cls-8" points="52.06 219.68 70.39 219.52 70.4 232.87 51.94 232.97 52.06 219.68"/><rect class="cls-8" x="51.94" y="78.66" width="212.12" height="130.31"/><polygon class="cls-9" points="264.06 78.66 264.06 86.6 69.24 86.25 69.47 208.97 51.94 208.97 51.94 78.66 264.06 78.66"/><text class="cls-18" transform="translate(116.36 153.7)">DELIVE<tspan class="cls-19" x="56.91" y="0">R</tspan><tspan x="67.19" y="0">Y</tspan></text><path class="cls-20" d="M193.19,243.55a41.41,41.41,0,1,1,1.49,40.09" transform="translate(-31.7 -117.38)"/><rect class="cls-17" x="117.19" y="162.16" width="61.87" height="4.85"/><rect class="cls-4" x="364.3" y="362.86" width="63.15" height="18.61" transform="translate(760.05 626.95) rotate(180)"/><polygon class="cls-21" points="100.11 98.21 112.72 111.44 93.88 124.17 95.53 116.79 8.57 116.79 12.89 105.34 98.46 105.34 100.11 98.21"/><polygon class="cls-9" points="54.4 105.34 17.41 105.34 51.94 102.24 54.4 105.34"/><polygon class="cls-9" points="54.75 116.79 51.94 118.27 9.66 116.79 54.75 116.79"/><polygon class="cls-21" points="71.68 135.29 84.28 148.53 65.45 161.25 67.1 153.87 0 153.87 4.33 142.42 70.03 142.42 71.68 135.29"/><polygon class="cls-9" points="54.4 142.41 8.57 142.41 51.94 139.31 54.4 142.41"/><polygon class="cls-9" points="54.75 153.88 51.94 156.2 16.35 153.88 54.75 153.88"/><polygon class="cls-21" points="102.07 171.16 114.67 184.4 95.84 197.13 97.49 189.74 10.53 189.74 14.85 178.29 100.42 178.29 102.07 171.16"/><polygon class="cls-9" points="54.4 178.3 17.41 178.3 51.94 175.2 54.4 178.3"/><polygon class="cls-9" points="54.75 189.77 51.94 191.26 9.66 189.77 54.75 189.77"/><rect class="cls-22" x="168.37" y="198.2" width="46.32" height="25.46"/><rect class="cls-23" x="214.69" y="198.2" width="17.7" height="25.46"/><rect class="cls-24" x="174.87" y="209.59" width="15.91" height="1.4"/><rect class="cls-24" x="174.87" y="213.58" width="15.91" height="1.4"/><rect class="cls-22" x="310.25" y="216.48" width="46.32" height="25.46"/><rect class="cls-23" x="356.57" y="216.48" width="17.7" height="25.46"/><rect class="cls-24" x="316.75" y="227.87" width="15.91" height="1.4"/><rect class="cls-24" x="316.75" y="231.86" width="15.91" height="1.4"/><rect class="cls-25" x="137.21" y="223.66" width="83.09" height="73.63"/><rect class="cls-26" x="220.3" y="223.66" width="31.75" height="73.63"/><rect class="cls-27" x="148.86" y="235.48" width="59.78" height="27.7"/><rect class="cls-24" x="148.86" y="269.91" width="28.54" height="2.72"/><rect class="cls-24" x="148.86" y="277.68" width="28.54" height="2.72"/><rect class="cls-9" x="232.68" y="223.66" width="6.98" height="73.63"/><rect class="cls-8" x="170.65" y="223.66" width="13.51" height="73.63"/><rect class="cls-25" x="105.74" y="241.94" width="62.41" height="55.31"/><rect class="cls-26" x="168.14" y="241.94" width="23.85" height="55.31"/><rect class="cls-27" x="114.49" y="250.82" width="44.9" height="20.8"/><rect class="cls-24" x="114.49" y="276.68" width="21.44" height="2.04"/><rect class="cls-24" x="114.49" y="282.51" width="21.44" height="2.04"/><rect class="cls-25" x="299.13" y="241.94" width="62.41" height="55.31"/><rect class="cls-26" x="361.54" y="241.94" width="23.85" height="55.31"/><rect class="cls-27" x="307.89" y="250.82" width="44.9" height="20.8"/><rect class="cls-24" x="307.89" y="276.68" width="21.44" height="2.04"/><rect class="cls-24" x="307.89" y="282.51" width="21.44" height="2.04"/><rect class="cls-22" x="182.68" y="271.83" width="46.32" height="25.46"/><rect class="cls-23" x="229" y="271.83" width="17.7" height="25.46"/><rect class="cls-24" x="189.18" y="283.22" width="15.91" height="1.4"/><rect class="cls-24" x="189.18" y="287.21" width="15.91" height="1.4"/></svg>